<svg>
    <symbol id="logo-white" xmlns="http://www.w3.org/2000/svg" viewBox="0 0 240 32" fill="none">
        <path
            d="M228.524 32C226.121 32 224.064 31.526 222.353 30.5781C220.642 29.6206 219.33 28.2897 218.417 26.5853C217.504 24.8714 217.048 22.8845 217.048 20.6248C217.048 18.3651 217.504 16.383 218.417 14.6787C219.33 12.9647 220.642 11.6338 222.353 10.6858C224.064 9.72833 226.121 9.24957 228.524 9.24957C230.927 9.24957 232.984 9.72833 234.694 10.6858C236.405 11.6338 237.717 12.9647 238.63 14.6787C239.543 16.383 240 18.3651 240 20.6248C240 22.8845 239.543 24.8714 238.63 26.5853C237.717 28.2897 236.405 29.6206 234.694 30.5781C232.984 31.526 230.927 32 228.524 32ZM228.581 26.1401C229.254 26.1401 229.836 25.915 230.326 25.465C230.816 25.015 231.196 24.3734 231.465 23.5404C231.734 22.7074 231.869 21.7164 231.869 20.5673C231.869 19.4088 231.734 18.4177 231.465 17.5943C231.196 16.7612 230.816 16.1197 230.326 15.6697C229.836 15.2196 229.254 14.9946 228.581 14.9946C227.87 14.9946 227.26 15.2196 226.75 15.6697C226.241 16.1197 225.852 16.7612 225.583 17.5943C225.314 18.4177 225.179 19.4088 225.179 20.5673C225.179 21.7164 225.314 22.7074 225.583 23.5404C225.852 24.3734 226.241 25.015 226.75 25.465C227.26 25.915 227.87 26.1401 228.581 26.1401Z"
            fill="white" />
        <path
            d="M202.954 32C200.589 32 198.552 31.55 196.841 30.6499C195.139 29.7403 193.828 28.4381 192.905 26.7433C191.992 25.0389 191.535 22.9994 191.535 20.6248C191.535 18.3459 191.997 16.3543 192.919 14.6499C193.842 12.9456 195.144 11.6194 196.826 10.6715C198.508 9.72354 200.493 9.24957 202.781 9.24957C204.453 9.24957 205.967 9.5081 207.322 10.0252C208.677 10.5422 209.836 11.2939 210.797 12.2801C211.758 13.2568 212.498 14.4441 213.017 15.842C213.536 17.24 213.796 18.8151 213.796 20.5673V22.4058H194.015V18.0395H206.472C206.462 17.4076 206.298 16.8522 205.981 16.3734C205.674 15.8851 205.256 15.5069 204.727 15.2388C204.208 14.9611 203.617 14.8223 202.954 14.8223C202.31 14.8223 201.719 14.9611 201.18 15.2388C200.642 15.5069 200.21 15.8803 199.883 16.3591C199.566 16.8378 199.397 17.398 199.378 18.0395V22.7505C199.378 23.459 199.527 24.091 199.825 24.6463C200.123 25.2017 200.551 25.6374 201.108 25.9533C201.666 26.2693 202.339 26.4273 203.127 26.4273C203.675 26.4273 204.174 26.3507 204.626 26.1975C205.087 26.0443 205.482 25.8241 205.808 25.5368C206.135 25.24 206.375 24.8857 206.529 24.474H213.796C213.546 26.006 212.955 27.3369 212.022 28.4668C211.09 29.5871 209.855 30.4584 208.317 31.0808C206.789 31.6936 205.001 32 202.954 32Z"
            fill="white" />
        <path
            d="M173.379 31.8851C171.803 31.8851 170.351 31.4734 169.025 30.6499C167.708 29.8265 166.651 28.5769 165.853 26.9013C165.065 25.2256 164.671 23.1143 164.671 20.5673C164.671 17.9055 165.084 15.7415 165.911 14.0754C166.747 12.4093 167.823 11.1885 169.14 10.4129C170.467 9.63735 171.86 9.24956 173.321 9.24956C174.417 9.24956 175.378 9.44106 176.205 9.82407C177.031 10.1975 177.723 10.7002 178.281 11.3321C178.838 11.9545 179.261 12.6391 179.55 13.386H179.665V2.18314H187.623V31.5978H179.723V27.9785H179.55C179.242 28.7253 178.8 29.3956 178.223 29.9892C177.656 30.5733 176.964 31.0377 176.147 31.3824C175.34 31.7175 174.417 31.8851 173.379 31.8851ZM176.32 25.7953C177.051 25.7953 177.675 25.5847 178.194 25.1634C178.723 24.7325 179.127 24.1293 179.405 23.3537C179.694 22.5685 179.838 21.6397 179.838 20.5673C179.838 19.4758 179.694 18.5422 179.405 17.7666C179.127 16.9815 178.723 16.383 178.194 15.9713C177.675 15.55 177.051 15.3393 176.32 15.3393C175.59 15.3393 174.965 15.55 174.446 15.9713C173.936 16.383 173.542 16.9815 173.264 17.7666C172.995 18.5422 172.86 19.4758 172.86 20.5673C172.86 21.6589 172.995 22.5973 173.264 23.3824C173.542 24.158 173.936 24.7564 174.446 25.1777C174.965 25.5895 175.59 25.7953 176.32 25.7953Z"
            fill="white" />
        <path
            d="M152.538 31.5978V9.5368H160.496V31.5978H152.538ZM156.517 7.23878C155.441 7.23878 154.518 6.8845 153.749 6.17594C152.98 5.46738 152.596 4.6152 152.596 3.61939C152.596 2.62358 152.98 1.77139 153.749 1.06283C154.518 0.354278 155.441 0 156.517 0C157.603 0 158.526 0.354278 159.285 1.06283C160.054 1.77139 160.439 2.62358 160.439 3.61939C160.439 4.6152 160.054 5.46738 159.285 6.17594C158.526 6.8845 157.603 7.23878 156.517 7.23878Z"
            fill="white" />
        <path
            d="M149.462 9.53683L142.023 31.5979H132.796L125.356 9.53683H133.719L137.294 24.1293H137.525L141.1 9.53683H149.462Z"
            fill="white" />
        <path d="M100.075 8.61761V2.18314H125.738V8.61761H116.856V31.5978H108.956V8.61761H100.075Z" fill="white" />
        <path d="M95.4493 16.8904V22.8653H81.6086V16.8904H95.4493Z" fill="white" />
        <path
            d="M68.0987 21.9462V9.53683H76.057V31.5979H68.5024V27.404H68.2717C67.7911 28.8115 66.9501 29.9126 65.7487 30.7074C64.5472 31.4925 63.1199 31.8851 61.4667 31.8851C59.9192 31.8851 58.564 31.5308 57.401 30.8223C56.2476 30.1137 55.349 29.1371 54.705 27.8923C54.0706 26.6475 53.7486 25.2209 53.739 23.6122V9.53683H61.6974V21.9462C61.707 23.0377 61.9857 23.8947 62.5336 24.5171C63.0911 25.1395 63.8696 25.4507 64.8692 25.4507C65.5324 25.4507 66.1043 25.3118 66.5849 25.0341C67.075 24.7469 67.4499 24.3447 67.7094 23.8277C67.9785 23.301 68.1083 22.6739 68.0987 21.9462Z"
            fill="white" />
        <path
            d="M38.2213 32C35.8184 32 33.7616 31.526 32.0507 30.5781C30.3398 29.6206 29.0279 28.2897 28.1148 26.5853C27.2017 24.8714 26.7451 22.8845 26.7451 20.6248C26.7451 18.3651 27.2017 16.383 28.1148 14.6787C29.0279 12.9647 30.3398 11.6338 32.0507 10.6858C33.7616 9.72833 35.8184 9.24957 38.2213 9.24957C40.6242 9.24957 42.6811 9.72833 44.3919 10.6858C46.1028 11.6338 47.4148 12.9647 48.3279 14.6787C49.241 16.383 49.6975 18.3651 49.6975 20.6248C49.6975 22.8845 49.241 24.8714 48.3279 26.5853C47.4148 28.2897 46.1028 29.6206 44.3919 30.5781C42.6811 31.526 40.6242 32 38.2213 32Z"
            fill="white" />
        <path
            d="M0 2.18314H8.93875L14.7057 14.1329H14.9364L20.7033 2.18314H29.642L18.8002 22.3483V31.5978H10.8418V22.3483L0 2.18314Z"
            fill="white" />
        <path d="M46.2295 21L34.4262 27.9282V14.0718L46.2295 21Z" fill="#FB6231" />
    </symbol>
    <symbol id="logo-orange" width="240" height="32" viewBox="0 0 240 32" fill="none"
        xmlns="http://www.w3.org/2000/svg">
        <path
            d="M228.524 32C226.121 32 224.064 31.526 222.353 30.5781C220.642 29.6206 219.33 28.2897 218.417 26.5853C217.504 24.8714 217.048 22.8845 217.048 20.6248C217.048 18.3651 217.504 16.383 218.417 14.6787C219.33 12.9647 220.642 11.6338 222.353 10.6858C224.064 9.72833 226.121 9.24957 228.524 9.24957C230.927 9.24957 232.984 9.72833 234.694 10.6858C236.405 11.6338 237.717 12.9647 238.63 14.6787C239.543 16.383 240 18.3651 240 20.6248C240 22.8845 239.543 24.8714 238.63 26.5853C237.717 28.2897 236.405 29.6206 234.694 30.5781C232.984 31.526 230.927 32 228.524 32ZM228.581 26.1401C229.254 26.1401 229.836 25.915 230.326 25.465C230.816 25.015 231.196 24.3734 231.465 23.5404C231.734 22.7074 231.869 21.7164 231.869 20.5673C231.869 19.4088 231.734 18.4177 231.465 17.5943C231.196 16.7612 230.816 16.1197 230.326 15.6697C229.836 15.2196 229.254 14.9946 228.581 14.9946C227.87 14.9946 227.26 15.2196 226.75 15.6697C226.241 16.1197 225.852 16.7612 225.583 17.5943C225.314 18.4177 225.179 19.4088 225.179 20.5673C225.179 21.7164 225.314 22.7074 225.583 23.5404C225.852 24.3734 226.241 25.015 226.75 25.465C227.26 25.915 227.87 26.1401 228.581 26.1401Z"
            fill="#FB6231" />
        <path
            d="M202.954 32C200.589 32 198.552 31.55 196.841 30.6499C195.139 29.7403 193.828 28.4381 192.905 26.7433C191.992 25.0389 191.535 22.9994 191.535 20.6248C191.535 18.3459 191.997 16.3543 192.919 14.6499C193.842 12.9456 195.144 11.6194 196.826 10.6715C198.508 9.72354 200.493 9.24957 202.781 9.24957C204.453 9.24957 205.967 9.5081 207.322 10.0252C208.677 10.5422 209.836 11.2939 210.797 12.2801C211.758 13.2568 212.498 14.4441 213.017 15.842C213.536 17.24 213.796 18.8151 213.796 20.5673V22.4058H194.015V18.0395H206.472C206.462 17.4076 206.298 16.8522 205.981 16.3734C205.674 15.8851 205.256 15.5069 204.727 15.2388C204.208 14.9611 203.617 14.8223 202.954 14.8223C202.31 14.8223 201.719 14.9611 201.18 15.2388C200.642 15.5069 200.21 15.8803 199.883 16.3591C199.566 16.8378 199.397 17.398 199.378 18.0395V22.7505C199.378 23.459 199.527 24.091 199.825 24.6463C200.123 25.2017 200.551 25.6374 201.108 25.9533C201.666 26.2693 202.339 26.4273 203.127 26.4273C203.675 26.4273 204.174 26.3507 204.626 26.1975C205.087 26.0443 205.482 25.8241 205.808 25.5368C206.135 25.24 206.375 24.8857 206.529 24.474H213.796C213.546 26.006 212.955 27.3369 212.022 28.4668C211.09 29.5871 209.855 30.4584 208.317 31.0808C206.789 31.6936 205.001 32 202.954 32Z"
            fill="#FB6231" />
        <path
            d="M173.379 31.8851C171.803 31.8851 170.351 31.4734 169.025 30.6499C167.708 29.8265 166.651 28.5769 165.853 26.9013C165.065 25.2256 164.671 23.1143 164.671 20.5673C164.671 17.9055 165.084 15.7415 165.911 14.0754C166.747 12.4093 167.824 11.1885 169.14 10.4129C170.467 9.63735 171.86 9.24956 173.321 9.24956C174.417 9.24956 175.378 9.44106 176.205 9.82407C177.031 10.1975 177.724 10.7002 178.281 11.3321C178.838 11.9545 179.261 12.6391 179.55 13.386H179.665V2.18314H187.623V31.5978H179.723V27.9785H179.55C179.242 28.7253 178.8 29.3956 178.223 29.9892C177.656 30.5733 176.964 31.0377 176.147 31.3824C175.34 31.7175 174.417 31.8851 173.379 31.8851ZM176.32 25.7953C177.051 25.7953 177.675 25.5847 178.194 25.1634C178.723 24.7325 179.127 24.1293 179.406 23.3537C179.694 22.5685 179.838 21.6397 179.838 20.5673C179.838 19.4758 179.694 18.5422 179.406 17.7666C179.127 16.9815 178.723 16.383 178.194 15.9713C177.675 15.55 177.051 15.3393 176.32 15.3393C175.59 15.3393 174.965 15.55 174.446 15.9713C173.937 16.383 173.542 16.9815 173.264 17.7666C172.995 18.5422 172.86 19.4758 172.86 20.5673C172.86 21.6589 172.995 22.5973 173.264 23.3824C173.542 24.158 173.937 24.7564 174.446 25.1777C174.965 25.5895 175.59 25.7953 176.32 25.7953Z"
            fill="#FB6231" />
        <path
            d="M152.538 31.5978V9.5368H160.496V31.5978H152.538ZM156.517 7.23878C155.441 7.23878 154.518 6.8845 153.749 6.17594C152.98 5.46738 152.595 4.6152 152.595 3.61939C152.595 2.62358 152.98 1.77139 153.749 1.06283C154.518 0.354278 155.441 0 156.517 0C157.603 0 158.526 0.354278 159.285 1.06283C160.054 1.77139 160.439 2.62358 160.439 3.61939C160.439 4.6152 160.054 5.46738 159.285 6.17594C158.526 6.8845 157.603 7.23878 156.517 7.23878Z"
            fill="#FB6231" />
        <path
            d="M149.462 9.53683L142.023 31.5979H132.796L125.357 9.53683H133.719L137.294 24.1293H137.525L141.1 9.53683H149.462Z"
            fill="#FB6231" />
        <path d="M100.075 8.61761V2.18314H125.738V8.61761H116.857V31.5978H108.956V8.61761H100.075Z" fill="#FB6231" />
        <path d="M95.4494 16.8904V22.8653H81.6087V16.8904H95.4494Z" fill="#FB6231" />
        <path
            d="M68.0987 21.9462V9.53683H76.0571V31.5979H68.5024V27.404H68.2717C67.7911 28.8115 66.9501 29.9126 65.7487 30.7074C64.5472 31.4925 63.1199 31.8851 61.4667 31.8851C59.9193 31.8851 58.564 31.5308 57.401 30.8223C56.2476 30.1137 55.349 29.1371 54.705 27.8923C54.0706 26.6475 53.7486 25.2209 53.739 23.6122V9.53683H61.6974V21.9462C61.707 23.0377 61.9857 23.8947 62.5336 24.5171C63.0911 25.1395 63.8696 25.4507 64.8692 25.4507C65.5324 25.4507 66.1043 25.3118 66.5849 25.0341C67.0751 24.7469 67.4499 24.3447 67.7094 23.8277C67.9786 23.301 68.1083 22.6739 68.0987 21.9462Z"
            fill="#FB6231" />
        <path
            d="M38.2214 32C35.8185 32 33.7616 31.526 32.0507 30.5781C30.3399 29.6206 29.0279 28.2897 28.1148 26.5853C27.2017 24.8714 26.7452 22.8845 26.7452 20.6248C26.7452 18.3651 27.2017 16.383 28.1148 14.6787C29.0279 12.9647 30.3399 11.6338 32.0507 10.6858C33.7616 9.72833 35.8185 9.24957 38.2214 9.24957C40.6242 9.24957 42.6811 9.72833 44.392 10.6858C46.1028 11.6338 47.4148 12.9647 48.3279 14.6787C49.241 16.383 49.6976 18.3651 49.6976 20.6248C49.6976 22.8845 49.241 24.8714 48.3279 26.5853C47.4148 28.2897 46.1028 29.6206 44.392 30.5781C42.6811 31.526 40.6242 32 38.2214 32Z"
            fill="#FB6231" />
        <path
            d="M0 2.18314H8.93875L14.7057 14.1329H14.9364L20.7033 2.18314H29.642L18.8002 22.3483V31.5978H10.8418V22.3483L0 2.18314Z"
            fill="#FB6231" />
        <path d="M46.2295 21L34.4262 27.9282V14.0718L46.2295 21Z" fill="white" />
    </symbol>
    <symbol id="star-ob" width="20" height="20" viewBox="0 0 20 20" fill="none" xmlns="http://www.w3.org/2000/svg">
        <path
            d="M11.4417 2.925L12.9083 5.85833C13.1083 6.26666 13.6417 6.65833 14.0917 6.73333L16.75 7.175C18.45 7.45833 18.85 8.69166 17.625 9.90833L15.5583 11.975C15.2083 12.325 15.0167 13 15.125 13.4833L15.7167 16.0417C16.1833 18.0667 15.1083 18.85 13.3167 17.7917L10.825 16.3167C10.375 16.05 9.63332 16.05 9.17499 16.3167L6.68332 17.7917C4.89999 18.85 3.81665 18.0583 4.28332 16.0417L4.87499 13.4833C4.98332 13 4.79165 12.325 4.44165 11.975L2.37499 9.90833C1.15832 8.69166 1.54999 7.45833 3.24999 7.175L5.90832 6.73333C6.34999 6.65833 6.88332 6.26666 7.08332 5.85833L8.54999 2.925C9.34999 1.33333 10.65 1.33333 11.4417 2.925Z"
            fill="white" stroke="#151515" stroke-linecap="round" stroke-linejoin="round" />
    </symbol>

    <symbol id="star-ow" width="20" height="20" viewBox="0 0 20 20" fill="none" xmlns="http://www.w3.org/2000/svg">
        <path
            d="M11.4417 2.92501L12.9083 5.85835C13.1083 6.26668 13.6417 6.65835 14.0917 6.73335L16.75 7.17501C18.45 7.45835 18.85 8.69168 17.625 9.90835L15.5583 11.975C15.2083 12.325 15.0167 13 15.125 13.4833L15.7167 16.0417C16.1833 18.0667 15.1083 18.85 13.3167 17.7917L10.825 16.3167C10.375 16.05 9.63332 16.05 9.17499 16.3167L6.68332 17.7917C4.89999 18.85 3.81665 18.0583 4.28332 16.0417L4.87499 13.4833C4.98332 13 4.79165 12.325 4.44165 11.975L2.37499 9.90835C1.15832 8.69168 1.54999 7.45835 3.24999 7.17501L5.90832 6.73335C6.34999 6.65835 6.88332 6.26668 7.08332 5.85835L8.54999 2.92501C9.34999 1.33335 10.65 1.33335 11.4417 2.92501Z"
            stroke="white" stroke-linecap="round" stroke-linejoin="round" />
    </symbol>

    <symbol id="star" width="20" height="20" viewBox="0 0 20 20" fill="none" xmlns="http://www.w3.org/2000/svg">
        <path
            d="M11.4417 2.925L12.9083 5.85833C13.1083 6.26666 13.6417 6.65833 14.0917 6.73333L16.75 7.175C18.45 7.45833 18.85 8.69166 17.625 9.90833L15.5583 11.975C15.2083 12.325 15.0167 13 15.125 13.4833L15.7167 16.0417C16.1833 18.0667 15.1083 18.85 13.3167 17.7917L10.825 16.3167C10.375 16.05 9.63332 16.05 9.17499 16.3167L6.68332 17.7917C4.89999 18.85 3.81665 18.0583 4.28332 16.0417L4.87499 13.4833C4.98332 13 4.79165 12.325 4.44165 11.975L2.37499 9.90833C1.15832 8.69166 1.54999 7.45833 3.24999 7.175L5.90832 6.73333C6.34999 6.65833 6.88332 6.26666 7.08332 5.85833L8.54999 2.925C9.34999 1.33333 10.65 1.33333 11.4417 2.925Z"
            fill="#FB6231" stroke="#151515" stroke-linecap="round" stroke-linejoin="round" />
    </symbol>


    <symbol id="search" width="20" height="20" viewBox="0 0 20 20" fill="none" xmlns="http://www.w3.org/2000/svg">
        <path
            d="M9.66665 16C13.1644 16 16 13.1645 16 9.66666C16 6.16886 13.1644 3.33333 9.66665 3.33333C6.16884 3.33333 3.33331 6.16886 3.33331 9.66666C3.33331 13.1645 6.16884 16 9.66665 16Z"
            stroke="white" stroke-width="1.5" stroke-linecap="round" stroke-linejoin="round" />
        <path d="M16.6666 16.6667L15.3333 15.3333" stroke="white" stroke-width="1.5" stroke-linecap="round"
            stroke-linejoin="round" />
    </symbol>
</svg>